<svg width="1497" height="453" viewBox="0 0 1497 453" fill="none" xmlns="http://www.w3.org/2000/svg">
<g clip-path="url(#clip0_48_2)">
<path d="M1447.4 118.2V331.8H1496.5V96L1447.4 118.2Z" fill="white"/>
<path d="M1410.7 282.7V225C1410.7 182.7 1385.9 160 1343.3 160C1307.2 160 1279.4 176.8 1262.5 195.1L1287.3 230.8C1299 214 1318.6 201.9 1339.9 201.9C1358.5 201.9 1365 209.8 1366.7 223.9L1315.1 243.1C1283.1 254.1 1267 268.9 1267 294.3C1267 321.5 1285.2 335.6 1311.3 335.6C1345.7 335.6 1360.4 310.2 1365.9 288.1V299.5C1365.9 323.5 1382.4 331.8 1400.6 331.8H1429.5V292.6H1419.5C1413.4 292.7 1410.7 290.3 1410.7 282.7ZM1366 267.3C1366 287.9 1353 299.6 1329.6 299.6C1317.9 299.6 1312.4 295.1 1312.4 287.2C1312.4 280.7 1316.9 275.8 1330.3 270.3L1366 255.5V267.3Z" fill="white"/>
<path d="M1049.2 200.9C1069.8 200.9 1080.8 213.6 1084.9 234.6L1125.8 210.9C1115.5 182 1087.6 160 1047.4 160C995.5 160 962.9 196.5 962.9 247.7C962.9 298.9 995.6 335.4 1047.4 335.4C1087.6 335.4 1115.4 313.4 1125.8 284.5L1084.9 260.8C1080.8 281.8 1070.1 294.5 1049.2 294.5C1028.3 294.5 1013.1 278.7 1013.1 247.8C1013.1 216.9 1027.6 200.9 1049.2 200.9Z" fill="white"/>
<path d="M934.8 282.7V225C934.8 182.7 910 160 867.4 160C844.2 160 824.4 166.9 808.8 176.8C812.7 183.5 814.8 192.1 814.8 202.3C814.8 212.5 812.9 222.3 810.5 229.5L811.4 230.8C823.1 214 842.7 201.9 864 201.9C882.5 201.9 889.1 209.8 890.8 223.9L839.2 243.1C807.3 254.1 791.1 268.9 791.1 294.3C791.1 321.5 809.3 335.6 835.4 335.6C869.8 335.6 884.6 310.2 890.1 288.1V299.5C890.1 323.5 906.6 331.8 924.8 331.8H953.7V292.6H943.7C937.5 292.7 934.8 290.3 934.8 282.7ZM890.1 267.3C890.1 287.9 877 299.6 853.6 299.6C841.9 299.6 836.4 295.1 836.4 287.2C836.4 280.7 840.9 275.8 854.3 270.3L890.1 255.5V267.3Z" fill="white"/>
<path d="M757.3 160C725 160 708.5 188.2 703 216.3V163.4L653.9 188.4V331.8H703V242.8C703 215 718.8 196.7 735.7 196.7C746.3 196.7 750.8 203.9 750.8 213.5C750.8 223.1 745 235.2 738.8 241.3H786.2C790.3 234.8 795.8 220.3 795.8 202.1C795.7 175.8 782 160 757.3 160Z" fill="white"/>
<path d="M574.4 100.3C556.7 112.7 546 133.1 546 154.8V188.4H521.2V225.8H546V331.8H595.2V225.8H631.2V188.4H595.2V154.8C595.2 146.7 600.4 142.2 602.6 140.6C604.8 139 610.8 135.7 618.5 138.5L633.3 143.9L650.1 97.7L635.3 92.3C614.9 84.9 592.1 87.9 574.4 100.3Z" fill="white"/>
<path d="M1228.9 285.1C1221.2 287.9 1215.2 284.6 1213 283C1210.8 281.4 1205.6 276.9 1205.6 268.8V197.5H1241.6V160H1205.6V96L1156.5 118.2V160H1131.7V197.4H1156.5V268.7C1156.5 290.4 1167.1 310.7 1184.9 323.2C1196.2 331.1 1209.6 335.2 1223.1 335.2C1230.8 335.2 1238.4 333.9 1245.8 331.2L1260.6 325.8L1243.8 279.6L1228.9 285.1Z" fill="white"/>
<path d="M421 138.4V176.5C421 177.7 420 178.7 418.8 178.7H293.5C307.5 164.7 321.4 150.8 335.4 136.8C335.8 136.4 336.4 136.2 336.9 136.2H418.8C420 136.2 421 137.2 421 138.4Z" fill="#03C995"/>
<path d="M293.4 274.4V234C293.4 232.8 294.4 231.8 295.6 231.8H330.7C332.6 231.8 333.6 234.2 332.2 235.5C319.3 248.5 306.4 261.5 293.4 274.4Z" fill="#03C995"/>
<path d="M295.7 226.6H376.3C377.5 226.6 378.5 225.6 378.5 224.4V186.3C378.5 185.1 377.5 184.1 376.3 184.1H295.7C294.5 184.1 293.5 185.1 293.5 186.3V224.4C293.5 225.6 294.5 226.6 295.7 226.6Z" fill="#03C995"/>
<path d="M239.2 0.300026L272.2 19.4C273.2 20 273.6 21.3 273 22.4L210.3 130.9C205.2 111.8 200.1 92.8 195 73.7C194.8 73.1 194.9 72.5 195.2 72L236.1 1.10003C236.8 2.63453e-05 238.2 -0.299974 239.2 0.300026Z" fill="#03C995"/>
<path d="M293.2 178.7L258.3 158.5C257.3 157.9 256.9 156.6 257.5 155.5L275 125.1C276 123.4 278.5 123.7 279 125.6C283.7 143.4 288.5 161.1 293.2 178.7Z" fill="#03C995"/>
<path d="M252.9 152.9L293.2 83.1C293.8 82.1 293.4 80.7 292.4 80.1L259.4 61C258.4 60.4 257 60.8 256.4 61.8L216.1 131.6C215.5 132.6 215.9 134 216.9 134.6L249.9 153.7C251 154.3 252.3 153.9 252.9 152.9Z" fill="#03C995"/>
<path d="M28.9 88.4L61.9 69.3C62.9 68.7 64.3 69.1 64.9 70.1L127.6 178.6C108.5 173.5 89.5 168.4 70.4 163.3C69.8 163.2 69.4 162.8 69.1 162.3L28.1 91.4C27.5 90.3 27.8 89 28.9 88.4Z" fill="#03C995"/>
<path d="M210.4 130.9L175.5 151C174.5 151.6 173.1 151.2 172.5 150.2L155 119.9C154 118.2 155.6 116.2 157.5 116.7C175.1 121.4 192.8 126.1 210.4 130.9Z" fill="#03C995"/>
<path d="M167.9 152.8L127.6 83C127 82 125.7 81.6 124.6 82.2L91.6 101.3C90.6 101.9 90.2 103.2 90.8 104.3L131.1 174.1C131.7 175.1 133 175.5 134.1 174.9L167.1 155.8C168.1 155.2 168.5 153.9 167.9 152.8Z" fill="#03C995"/>
<path d="M0 314.6V276.5C0 275.3 1 274.3 2.2 274.3H127.5C113.5 288.3 99.6 302.2 85.6 316.2C85.2 316.6 84.6 316.8 84.1 316.8H2.2C1 316.8 0 315.8 0 314.6Z" fill="#03C995"/>
<path d="M127.6 178.6V219C127.6 220.2 126.6 221.2 125.4 221.2H90.3C88.4 221.2 87.4 218.8 88.8 217.5C101.7 204.5 114.6 191.6 127.6 178.6Z" fill="#03C995"/>
<path d="M125.3 226.4H44.7C43.5 226.4 42.5 227.4 42.5 228.6V266.7C42.5 267.9 43.5 268.9 44.7 268.9H125.3C126.5 268.9 127.5 267.9 127.5 266.7V228.6C127.5 227.4 126.5 226.4 125.3 226.4Z" fill="#03C995"/>
<path d="M181.5 452.7L148.5 433.6C147.5 433 147.1 431.7 147.7 430.6L210.4 322.1C215.5 341.2 220.6 360.2 225.7 379.3C225.9 379.9 225.8 380.5 225.5 381L184.6 451.9C183.8 453 182.5 453.3 181.5 452.7Z" fill="#03C995"/>
<path d="M127.5 274.3L162.4 294.5C163.4 295.1 163.8 296.4 163.2 297.5L145.7 327.9C144.7 329.6 142.2 329.3 141.7 327.4C136.9 309.6 132.2 291.9 127.5 274.3Z" fill="#03C995"/>
<path d="M167.8 300.1L127.5 369.9C126.9 370.9 127.3 372.3 128.3 372.9L161.3 392C162.3 392.6 163.7 392.2 164.3 391.2L204.6 321.4C205.2 320.4 204.8 319 203.8 318.4L170.8 299.3C169.7 298.7 168.4 299.1 167.8 300.1Z" fill="#03C995"/>
<path d="M391.8 364.6L358.8 383.7C357.8 384.3 356.4 383.9 355.8 382.9L293.1 274.4C312.2 279.5 331.2 284.6 350.3 289.7C350.9 289.8 351.3 290.2 351.6 290.7L392.5 361.6C393.2 362.7 392.9 364 391.8 364.6Z" fill="#03C995"/>
<path d="M210.3 322.1L245.2 301.9C246.2 301.3 247.6 301.7 248.2 302.7L265.7 333.1C266.7 334.8 265.1 336.8 263.2 336.3C245.6 331.6 227.9 326.9 210.3 322.1Z" fill="#03C995"/>
<path d="M252.8 300.2L293.1 370C293.7 371 295 371.4 296.1 370.8L329.1 351.7C330.1 351.1 330.5 349.8 329.9 348.7L289.6 278.9C289 277.9 287.7 277.5 286.6 278.1L253.6 297.2C252.6 297.8 252.2 299.1 252.8 300.2Z" fill="#03C995"/>
</g>
<defs>
<clipPath id="clip0_48_2">
<rect width="1497" height="453" fill="white"/>
</clipPath>
</defs>
</svg>
